<svg xmlns="http://www.w3.org/2000/svg" xml:space="preserve" width="95.286" height="95.286"><path d="M913.133 848.051v23.494h23.492v-23.494h-11.43v7.887l-2.134-2.137-2.137 2.137v-7.887zm18.457 10.237c.976 0 1.754.356 2.336 1.068.586.707.879 1.642.879 2.805v.652c0 1.54-.394 2.786-1.184 3.736-.785.95-1.974 1.434-3.562 1.452h-.235v-1.575h.156c.942-.005 1.645-.205 2.11-.6.469-.399.74-.971.814-1.718-.503.486-1.081.728-1.732.728-.89 0-1.573-.302-2.05-.91-.474-.612-.71-1.373-.71-2.285 0-.92.287-1.708.86-2.363.577-.66 1.35-.99 2.318-.99m-12.748.006c.95 0 1.72.316 2.31.945.59.63.889 1.648.893 3.059v1.68c0 1.427-.293 2.46-.879 3.099-.586.638-1.356.957-2.31.957-.955 0-1.73-.32-2.325-.957-.59-.638-.886-1.672-.886-3.1v-1.646c0-1.424.292-2.452.878-3.086.59-.634 1.364-.951 2.319-.951m0 1.517c-.413 0-.733.163-.963.489-.23.325-.347.898-.352 1.718v2.213c0 .847.114 1.439.344 1.778.234.338.563.507.984.507.413 0 .732-.164.957-.494.23-.334.348-.913.352-1.738v-2.213c0-.842-.116-1.428-.346-1.758-.23-.334-.555-.502-.976-.502m12.74 0c-.412 0-.731.188-.957.56a2.347 2.347 0 0 0-.338 1.25c0 .487.11.904.332 1.25.221.348.56.52 1.016.52.308 0 .573-.078.795-.234.221-.16.385-.352.494-.578v-.762c0-.673-.129-1.174-.385-1.504-.256-.334-.575-.502-.957-.502m-8.19 3.268h3.659v1.523h-3.658z" style="fill:#389826;stroke-width:2.13581" transform="translate(-850.841 -809.166)"/><path d="M858.51 849.73v21.815h21.814V849.73h-10.916v7.143l-1.984-1.983-1.983 1.983v-7.143zm4.931 10.138c.812 0 1.484.207 2.018.619.538.412.807 1.03.807 1.855v3.139c.009.625.103 1.108.28 1.451v.112h-1.901a2.63 2.63 0 0 1-.188-.633c-.456.508-1.048.761-1.777.761-.673 0-1.24-.196-1.7-.591-.46-.4-.69-.906-.69-1.518 0-.738.273-1.307.82-1.71.546-.409 1.357-.614 2.43-.614h.839v-.41c0-.326-.085-.583-.254-.774-.165-.195-.429-.293-.79-.293-.672 0-1.007.282-1.007.846h-1.883c0-.612.272-1.138.815-1.576.542-.443 1.27-.664 2.181-.664m9.309.13h5.645v1.108l-3.346 4.42h3.443v1.518h-5.846v-1.147l3.327-4.38h-3.223Zm-5.04 2.221h3.661v1.524h-3.66zm-4.1 1.614c-.5 0-.864.107-1.094.32a1 1 0 0 0-.344.773c0 .235.08.429.24.58.165.152.391.229.678.229.317 0 .585-.07.806-.21.226-.142.387-.299.483-.468v-1.224z" style="fill:#389826;stroke-width:1.98324" transform="translate(-850.841 -809.166)"/><path d="M887.822 851.868v19.677H907.5v-19.677h-8.945v6.443l-1.79-1.789-1.788 1.79v-6.444zm9.203 8.781h1.27l-.13 2.313 1.978-.795.384 1.191-2.084.58 1.362 1.725-1.03.736-1.183-1.895-1.18 1.836-1.035-.71 1.414-1.77-2.05-.58.39-1.178 2.017.813z" style="fill:#9558b2;stroke-width:1.78882" transform="translate(-850.841 -809.166)"/><path d="M891.715 829.673v4.816l-.83.388a10.218 10.218 0 0 0-5.83 10.06l.173 2.081 3.995-.33-.172-2.083a6.194 6.194 0 0 1 3.533-6.097l2.387-1.117.234-.057 2.327 1.294 2.327-1.294.234.057 2.387 1.117a6.194 6.194 0 0 1 3.534 6.097l-.173 2.083 3.995.33.173-2.082a10.218 10.218 0 0 0-5.83-10.059l-.83-.388v-14.266h1.63v-6.217h-14.894v6.216h1.63zm3.34-9.45h4.954v9.45h-4.953z" style="fill:#dd483f;stroke-width:.156295;fill-opacity:1" transform="translate(-850.841 -809.166)"/><path d="M856.976 875.991a6.134 6.134 0 1 0 0 12.268h83.018a6.134 6.134 0 0 0 0-12.268zm66.635 8.632a2.42 2.42 0 0 1-2.417-2.417 2.42 2.42 0 0 1 2.417-2.417 2.42 2.42 0 0 1 2.416 2.417 2.42 2.42 0 0 1-2.416 2.417m-16.535 0a2.42 2.42 0 0 1-2.416-2.417 2.419 2.419 0 0 1 2.416-2.417 2.42 2.42 0 0 1 2.417 2.417 2.42 2.42 0 0 1-2.417 2.417m-16.533 0a2.42 2.42 0 0 1-2.417-2.417 2.419 2.419 0 0 1 2.417-2.417 2.419 2.419 0 0 1 2.416 2.417 2.42 2.42 0 0 1-2.416 2.417m-16.535 0a2.42 2.42 0 0 1-2.416-2.417 2.42 2.42 0 0 1 2.416-2.417 2.419 2.419 0 0 1 2.417 2.417 2.42 2.42 0 0 1-2.417 2.417m-16.534 0a2.42 2.42 0 0 1-2.417-2.417 2.42 2.42 0 0 1 2.417-2.417 2.42 2.42 0 0 1 2.417 2.417 2.42 2.42 0 0 1-2.417 2.417m82.063 0a2.42 2.42 0 0 1-2.417-2.417 2.42 2.42 0 0 1 2.417-2.417 2.42 2.42 0 0 1 2.417 2.417 2.42 2.42 0 0 1-2.417 2.417" style="fill:#1f83ff;stroke-linecap:round;stroke-linejoin:bevel" transform="translate(-850.841 -809.166)"/></svg>